<svg width="106" height="37" viewBox="0 0 106 37" fill="none" xmlns="http://www.w3.org/2000/svg">
<path d="M13.544 36.576C10.6 36.576 8.104 36.08 6.056 35.088C4.008 34.064 2.264 32.752 0.824 31.152L5.624 26.304C7.896 28.864 10.696 30.144 14.024 30.144C15.816 30.144 17.144 29.776 18.008 29.04C18.872 28.304 19.304 27.328 19.304 26.112C19.304 25.184 19.048 24.416 18.536 23.808C18.024 23.168 16.984 22.736 15.416 22.512L12.104 22.08C8.552 21.632 5.944 20.56 4.28 18.864C2.648 17.168 1.832 14.912 1.832 12.096C1.832 10.592 2.12 9.216 2.696 7.968C3.272 6.72 4.088 5.648 5.144 4.752C6.232 3.856 7.544 3.168 9.08 2.688C10.648 2.176 12.424 1.92 14.408 1.92C16.936 1.92 19.16 2.32 21.08 3.12C23 3.92 24.648 5.088 26.024 6.624L21.176 11.52C20.376 10.592 19.4 9.84 18.248 9.264C17.128 8.656 15.704 8.352 13.976 8.352C12.344 8.352 11.128 8.64 10.328 9.216C9.528 9.792 9.128 10.592 9.128 11.616C9.128 12.768 9.432 13.6 10.04 14.112C10.68 14.624 11.704 14.992 13.112 15.216L16.424 15.744C19.88 16.288 22.44 17.36 24.104 18.96C25.768 20.528 26.6 22.768 26.6 25.68C26.6 27.28 26.312 28.752 25.736 30.096C25.16 31.44 24.312 32.592 23.192 33.552C22.104 34.512 20.744 35.264 19.112 35.808C17.48 36.32 15.624 36.576 13.544 36.576ZM32.2651 0.48H39.3691V15.072H39.6571C40.1051 13.76 40.8891 12.624 42.0091 11.664C43.1291 10.704 44.6811 10.224 46.6651 10.224C49.2571 10.224 51.2091 11.088 52.5211 12.816C53.8651 14.544 54.5371 17.008 54.5371 20.208V36H47.4331V20.784C47.4331 19.152 47.1771 17.952 46.6651 17.184C46.1531 16.384 45.2411 15.984 43.9291 15.984C43.3531 15.984 42.7931 16.064 42.2491 16.224C41.7051 16.352 41.2091 16.576 40.7611 16.896C40.3451 17.216 40.0091 17.616 39.7531 18.096C39.4971 18.544 39.3691 19.072 39.3691 19.68V36H32.2651V0.48ZM62.1069 16.32H58.5549V10.8H62.1069V7.824C62.1069 5.392 62.7469 3.568 64.0269 2.352C65.3069 1.104 67.1789 0.48 69.6429 0.48H74.2509V6H69.2109V10.8H85.2909V36H78.1869V16.32H69.2109V36H62.1069V16.32ZM81.7389 8.112C80.2989 8.112 79.2429 7.792 78.5709 7.152C77.9309 6.48 77.6109 5.632 77.6109 4.608V3.552C77.6109 2.528 77.9309 1.696 78.5709 1.056C79.2429 0.383999 80.2989 0.0479994 81.7389 0.0479994C83.1789 0.0479994 84.2189 0.383999 84.8589 1.056C85.5309 1.696 85.8669 2.528 85.8669 3.552V4.608C85.8669 5.632 85.5309 6.48 84.8589 7.152C84.2189 7.792 83.1789 8.112 81.7389 8.112ZM100.769 36C98.305 36 96.433 35.376 95.153 34.128C93.905 32.88 93.281 31.056 93.281 28.656V16.32H89.729V10.8H91.505C92.465 10.8 93.121 10.576 93.473 10.128C93.825 9.648 94.001 8.976 94.001 8.112V3.984H100.385V10.8H105.377V16.32H100.385V30.48H104.993V36H100.769Z" fill="url(#paint0_linear_59_7)"/>
<defs>
<linearGradient id="paint0_linear_59_7" x1="-1" y1="17.735" x2="107" y2="17.735" gradientUnits="userSpaceOnUse">
<stop stop-color="#FFB703"/>
<stop offset="1" stop-color="#FB8500"/>
</linearGradient>
</defs>
</svg>
